<?xml version="1.0" standalone="no"?>
<!DOCTYPE svg PUBLIC "-//W3C//DTD SVG 20010904//EN"
 "http://www.w3.org/TR/2001/REC-SVG-20010904/DTD/svg10.dtd">
<svg version="1.0" xmlns="http://www.w3.org/2000/svg"
 width="700.000000pt" height="700.000000pt" viewBox="0 0 700.000000 700.000000"
 preserveAspectRatio="xMidYMid meet">
<metadata>
Created by potrace 1.14, written by Peter Selinger 2001-2017
</metadata>
<g transform="translate(0.000000,700.000000) scale(0.100000,-0.100000)"
fill="#000000" stroke="none">
<path d="M698 6354 c-228 -45 -441 -194 -562 -392 -153 -252 -162 -575 -24
-832 22 -41 59 -97 82 -125 22 -27 48 -58 56 -68 63 -77 237 -181 375 -224
l90 -28 2130 -2 c2223 -2 2179 -3 2320 38 51 14 163 70 224 111 25 17 80 66
121 108 156 159 238 362 238 585 0 201 -70 392 -201 548 -46 55 -150 145 -194
168 -15 8 -30 16 -33 19 -9 9 -124 59 -165 71 -125 38 -104 38 -2280 37 -1705
0 -2123 -3 -2177 -14z"/>
<path d="M2768 4315 c-2 -2 -19 -5 -38 -8 -103 -15 -243 -77 -345 -152 -204
-150 -330 -388 -339 -640 -8 -206 28 -314 203 -622 72 -125 135 -235 141 -243
8 -13 28 -49 98 -171 11 -20 39 -67 61 -104 23 -37 41 -69 41 -71 0 -2 22 -41
49 -86 27 -46 58 -100 69 -120 12 -20 83 -144 158 -275 76 -131 211 -365 301
-521 180 -314 207 -355 285 -428 73 -68 111 -96 192 -139 196 -104 409 -126
626 -66 261 73 482 286 569 549 31 96 36 136 35 282 -1 213 -12 239 -306 750
-77 133 -179 311 -195 340 -30 53 -152 263 -162 280 -5 8 -98 170 -207 360
-448 780 -452 788 -565 885 -162 139 -355 208 -571 204 -53 -1 -98 -3 -100 -4z"/>
<path d="M5085 3020 c-221 -48 -286 -354 -102 -478 82 -55 76 -55 540 -56 515
-2 544 2 624 86 127 132 83 354 -86 432 -44 20 -62 20 -496 21 -247 1 -463 -2
-480 -5z"/>
<path d="M5860 2341 c-188 -61 -252 -288 -125 -439 70 -83 219 -113 315 -64
122 64 178 187 144 315 -7 27 -19 58 -27 70 -24 37 -78 85 -116 103 -40 19
-152 28 -191 15z"/>
<path d="M5842 1665 c-241 -72 -256 -404 -23 -508 44 -19 68 -20 491 -21 476
-1 499 1 572 49 66 44 112 131 117 220 4 91 -66 202 -156 246 -48 23 -48 23
-504 24 -328 1 -467 -2 -497 -10z"/>
</g>
</svg>
